<svg xmlns="http://www.w3.org/2000/svg" width="16" height="16" viewBox="0 0 16 16">
  <path fill="#000000" d="M9,12 L10,12 C10.1081851,12 10.2134519,12.0350889 10.3,12.1 C10.5209139,12.2656854 10.5656854,12.5790861 10.4,12.8 L8.4,15.4666667 C8.37157288,15.5045695 8.33790283,15.5382395 8.3,15.5666667 C8.0790861,15.7323521 7.76568542,15.6875806 7.6,15.4666667 L5.6,12.8 C5.53508894,12.7134519 5.5,12.6081851 5.5,12.5 C5.5,12.2238576 5.72385763,12 6,12 L7,12 L7,8 C7,7.44771525 7.44771525,7 8,7 C8.55228475,7 9,7.44771525 9,8 L9,12 Z M4,9 C4.55228475,9 5,9.44771525 5,10 C5,10.5522847 4.55228475,11 4,11 C1.790861,11 0,9.209139 0,7 C0,5.50763622 0.817269313,4.20615592 2.02865868,3.51870836 C2.26636764,1.53650369 3.95374899,0 6,0 C7.01005658,0 7.94808779,0.377791296 8.66207058,1.01418554 C8.77394217,1.0047648 8.8866676,1 9,1 C10.4923638,1 11.7938441,1.81726931 12.4812916,3.02865868 C14.4634963,3.26636764 16,4.95374899 16,7 C16,9.209139 14.209139,11 12,11 C11.4477153,11 11,10.5522847 11,10 C11,9.44771525 11.4477153,9 12,9 C13.1045695,9 14,8.1045695 14,7 C14,5.8954305 13.1045695,5 12,5 L11,5 C11,3.8954305 10.1045695,3 9,3 C8.58834122,3 8.20573094,3.12437141 7.88769478,3.33758861 C7.61434225,2.5585717 6.87240183,2 6,2 C4.8954305,2 4,2.8954305 4,4 C4,4.36428714 4.09739429,4.70582663 4.26756439,5 L4,5 C2.8954305,5 2,5.8954305 2,7 C2,8.1045695 2.8954305,9 4,9 L4,9 Z"/>
</svg>
